<svg width="34" height="34" viewBox="0 0 34 34" fill="none" xmlns="http://www.w3.org/2000/svg">
<g id="Facebook" clip-path="url(#clip0_127_5689)">
<path id="Vector" d="M29.0264 0.238281H4.27637C2.00143 0.238281 0.151367 2.08834 0.151367 4.36328V29.1133C0.151367 31.3882 2.00143 33.2383 4.27637 33.2383H29.0264C31.3013 33.2383 33.1514 31.3882 33.1514 29.1133V4.36328C33.1514 2.08834 31.3013 0.238281 29.0264 0.238281Z" fill="#1976D2"/>
<path id="Vector_2" fill-rule="evenodd" clip-rule="evenodd" d="M27.9951 16.7383H22.8389V12.6133C22.8389 11.4748 23.7629 11.582 24.9014 11.582H26.9639V6.42578H22.8389C21.1978 6.42578 19.624 7.07768 18.4636 8.23806C17.3033 9.39844 16.6514 10.9723 16.6514 12.6133V16.7383H12.5264V21.8945H16.6514V33.2383H22.8389V21.8945H25.9326L27.9951 16.7383Z" fill="#FAFAFA"/>
</g>
<defs>
<clipPath id="clip0_127_5689">
<rect width="33" height="33" fill="white" transform="translate(0.151367 0.238281)"/>
</clipPath>
</defs>
</svg>
