<svg width="34" height="34" viewBox="0 0 34 34" fill="none" xmlns="http://www.w3.org/2000/svg">
<g id="Linkedin" clip-path="url(#clip0_127_5683)">
<g id="Layer 2">
<g id="Layer 1">
<path id="Vector" d="M25.7444 0.238281H7.55836C3.46759 0.238281 0.151367 3.55451 0.151367 7.64528V25.8313C0.151367 29.9221 3.46759 33.2383 7.55836 33.2383H25.7444C29.8351 33.2383 33.1514 29.9221 33.1514 25.8313V7.64528C33.1514 3.55451 29.8351 0.238281 25.7444 0.238281Z" fill="#0B86CA"/>
<path id="Vector_2" d="M9.29769 13.9551H12.7269V25.0199H9.29769V13.9551ZM11.0466 8.45703C11.4394 8.45704 11.8235 8.5734 12.1504 8.79145C12.4772 9.00949 12.7321 9.31944 12.883 9.68221C13.0338 10.045 13.0739 10.4443 12.9981 10.8298C12.9222 11.2153 12.7339 11.5697 12.4569 11.8483C12.1799 12.1269 11.8266 12.3172 11.4415 12.3952C11.0565 12.4733 10.6569 12.4355 10.2933 12.2867C9.92971 12.1379 9.6183 11.8848 9.39839 11.5592C9.17847 11.2337 9.05991 10.8503 9.05765 10.4574C9.05614 10.1952 9.10648 9.93537 9.20575 9.69274C9.30503 9.45011 9.4513 9.22951 9.63613 9.04361C9.82097 8.85771 10.0407 8.71018 10.2828 8.60951C10.5248 8.50885 10.7844 8.45703 11.0466 8.45703Z" fill="white"/>
<path id="Vector_3" d="M14.9187 13.9548H18.2221V15.4637C18.5528 14.8993 19.0305 14.4354 19.6042 14.1213C20.178 13.8073 20.8262 13.6549 21.4798 13.6805C24.909 13.6805 25.6062 15.9666 25.6062 18.95V25.0196H22.1771V19.6701C22.1771 18.3899 22.1771 16.7325 20.3939 16.7325C18.6107 16.7325 18.3364 18.127 18.3364 19.5672V25.0425H14.9072L14.9187 13.9548Z" fill="white"/>
</g>
</g>
</g>
<defs>
<clipPath id="clip0_127_5683">
<rect width="33" height="33" fill="white" transform="translate(0.151367 0.238281)"/>
</clipPath>
</defs>
</svg>
