<svg width="45" height="32" viewBox="0 0 45 32" fill="none" xmlns="http://www.w3.org/2000/svg">
<g id="YouTube svg" clip-path="url(#clip0_127_5678)">
<g id="g10">
<g id="g12">
<path id="path14" d="M43.2288 5.07903C42.7211 3.17353 41.2252 1.67303 39.3255 1.16378C35.8824 0.238281 22.0758 0.238281 22.0758 0.238281C22.0758 0.238281 8.2692 0.238281 4.82604 1.16378C2.92644 1.67303 1.4303 3.17353 0.922599 5.07903C0 8.53261 0 15.7383 0 15.7383C0 15.7383 0 22.9439 0.922599 26.3978C1.4303 28.303 2.92644 29.8035 4.82604 30.313C8.2692 31.2383 22.0758 31.2383 22.0758 31.2383C22.0758 31.2383 35.8824 31.2383 39.3255 30.313C41.2252 29.8035 42.7211 28.303 43.2288 26.3978C44.1515 22.9439 44.1515 15.7383 44.1515 15.7383C44.1515 15.7383 44.1515 8.53261 43.2288 5.07903Z" fill="#ED1D24"/>
<path id="path16" d="M17.5605 22.2803L29.1001 15.7384L17.5605 9.1959V22.2803Z" fill="white"/>
</g>
</g>
</g>
<defs>
<clipPath id="clip0_127_5678">
<rect width="44.1515" height="31" fill="white" transform="translate(0 0.238281)"/>
</clipPath>
</defs>
</svg>
